<mxfile host="app.diagrams.net" agent="Mozilla/5.0 (Windows NT 10.0; Win64; x64) AppleWebKit/537.36 (KHTML, like Gecko) Chrome/140.0.0.0 Safari/537.36" version="28.2.5">
  <diagram name="Page-1" id="KRgrHgQUE2co52KcbR1m">
    <mxGraphModel dx="786" dy="451" grid="1" gridSize="10" guides="1" tooltips="1" connect="1" arrows="1" fold="1" page="1" pageScale="1" pageWidth="850" pageHeight="1100" math="0" shadow="0">
      <root>
        <mxCell id="0" />
        <mxCell id="1" parent="0" />
        <mxCell id="xnoSQF2YCeQExc6OMMjH-1" value="STUDENT&amp;nbsp; INFORMATION SYSTEM" style="rounded=0;whiteSpace=wrap;html=1;" vertex="1" parent="1">
          <mxGeometry x="170" y="410" width="480" height="60" as="geometry" />
        </mxCell>
        <mxCell id="xnoSQF2YCeQExc6OMMjH-20" style="edgeStyle=orthogonalEdgeStyle;rounded=0;orthogonalLoop=1;jettySize=auto;html=1;entryX=0;entryY=0.5;entryDx=0;entryDy=0;" edge="1" parent="1" source="xnoSQF2YCeQExc6OMMjH-2" target="xnoSQF2YCeQExc6OMMjH-3">
          <mxGeometry relative="1" as="geometry" />
        </mxCell>
        <mxCell id="xnoSQF2YCeQExc6OMMjH-21" style="edgeStyle=orthogonalEdgeStyle;rounded=0;orthogonalLoop=1;jettySize=auto;html=1;exitX=0.5;exitY=1;exitDx=0;exitDy=0;entryX=0.5;entryY=0;entryDx=0;entryDy=0;" edge="1" parent="1" source="xnoSQF2YCeQExc6OMMjH-2" target="xnoSQF2YCeQExc6OMMjH-5">
          <mxGeometry relative="1" as="geometry" />
        </mxCell>
        <mxCell id="xnoSQF2YCeQExc6OMMjH-2" value="Admin" style="rounded=0;whiteSpace=wrap;html=1;" vertex="1" parent="1">
          <mxGeometry x="50" y="520" width="140" height="60" as="geometry" />
        </mxCell>
        <mxCell id="xnoSQF2YCeQExc6OMMjH-23" style="edgeStyle=orthogonalEdgeStyle;rounded=0;orthogonalLoop=1;jettySize=auto;html=1;exitX=0.5;exitY=1;exitDx=0;exitDy=0;entryX=0.5;entryY=0;entryDx=0;entryDy=0;" edge="1" parent="1" source="xnoSQF2YCeQExc6OMMjH-3" target="xnoSQF2YCeQExc6OMMjH-6">
          <mxGeometry relative="1" as="geometry" />
        </mxCell>
        <mxCell id="xnoSQF2YCeQExc6OMMjH-3" value="Login to System" style="ellipse;whiteSpace=wrap;html=1;aspect=fixed;" vertex="1" parent="1">
          <mxGeometry x="280" y="510" width="80" height="80" as="geometry" />
        </mxCell>
        <mxCell id="xnoSQF2YCeQExc6OMMjH-29" style="edgeStyle=orthogonalEdgeStyle;rounded=0;orthogonalLoop=1;jettySize=auto;html=1;exitX=0.5;exitY=1;exitDx=0;exitDy=0;entryX=0.5;entryY=0;entryDx=0;entryDy=0;" edge="1" parent="1" source="xnoSQF2YCeQExc6OMMjH-4" target="xnoSQF2YCeQExc6OMMjH-7">
          <mxGeometry relative="1" as="geometry" />
        </mxCell>
        <mxCell id="xnoSQF2YCeQExc6OMMjH-4" value="Check Roles of Access" style="ellipse;whiteSpace=wrap;html=1;aspect=fixed;" vertex="1" parent="1">
          <mxGeometry x="510" y="510" width="80" height="80" as="geometry" />
        </mxCell>
        <mxCell id="xnoSQF2YCeQExc6OMMjH-22" style="edgeStyle=orthogonalEdgeStyle;rounded=0;orthogonalLoop=1;jettySize=auto;html=1;entryX=0.5;entryY=0;entryDx=0;entryDy=0;" edge="1" parent="1" source="xnoSQF2YCeQExc6OMMjH-5" target="xnoSQF2YCeQExc6OMMjH-15">
          <mxGeometry relative="1" as="geometry" />
        </mxCell>
        <mxCell id="xnoSQF2YCeQExc6OMMjH-5" value="Forgot&amp;nbsp; password&amp;nbsp;" style="ellipse;whiteSpace=wrap;html=1;aspect=fixed;" vertex="1" parent="1">
          <mxGeometry x="80" y="630" width="80" height="80" as="geometry" />
        </mxCell>
        <mxCell id="xnoSQF2YCeQExc6OMMjH-6" value="Check Credentials" style="ellipse;whiteSpace=wrap;html=1;aspect=fixed;" vertex="1" parent="1">
          <mxGeometry x="280" y="640" width="80" height="80" as="geometry" />
        </mxCell>
        <mxCell id="xnoSQF2YCeQExc6OMMjH-42" style="edgeStyle=orthogonalEdgeStyle;rounded=0;orthogonalLoop=1;jettySize=auto;html=1;exitX=1;exitY=0.5;exitDx=0;exitDy=0;entryX=0;entryY=0.5;entryDx=0;entryDy=0;" edge="1" parent="1" source="xnoSQF2YCeQExc6OMMjH-7" target="xnoSQF2YCeQExc6OMMjH-10">
          <mxGeometry relative="1" as="geometry" />
        </mxCell>
        <mxCell id="xnoSQF2YCeQExc6OMMjH-7" value="Mange&lt;div&gt;Modules&amp;nbsp;&lt;/div&gt;" style="ellipse;whiteSpace=wrap;html=1;aspect=fixed;" vertex="1" parent="1">
          <mxGeometry x="510" y="640" width="80" height="80" as="geometry" />
        </mxCell>
        <mxCell id="xnoSQF2YCeQExc6OMMjH-8" value="Manage Timetable Details" style="rounded=0;whiteSpace=wrap;html=1;" vertex="1" parent="1">
          <mxGeometry x="700" y="510" width="120" height="60" as="geometry" />
        </mxCell>
        <mxCell id="xnoSQF2YCeQExc6OMMjH-9" value="Manage Attendence Deyails" style="rounded=0;whiteSpace=wrap;html=1;" vertex="1" parent="1">
          <mxGeometry x="700" y="580" width="120" height="60" as="geometry" />
        </mxCell>
        <mxCell id="xnoSQF2YCeQExc6OMMjH-10" value="Manage Class Details" style="rounded=0;whiteSpace=wrap;html=1;" vertex="1" parent="1">
          <mxGeometry x="700" y="650" width="120" height="60" as="geometry" />
        </mxCell>
        <mxCell id="xnoSQF2YCeQExc6OMMjH-11" value="Mange Student Details" style="rounded=0;whiteSpace=wrap;html=1;" vertex="1" parent="1">
          <mxGeometry x="700" y="720" width="120" height="60" as="geometry" />
        </mxCell>
        <mxCell id="xnoSQF2YCeQExc6OMMjH-12" value="Manage Fees Detailes" style="rounded=0;whiteSpace=wrap;html=1;" vertex="1" parent="1">
          <mxGeometry x="700" y="790" width="120" height="60" as="geometry" />
        </mxCell>
        <mxCell id="xnoSQF2YCeQExc6OMMjH-13" value="Manage Teacher Profiles&amp;nbsp;" style="rounded=0;whiteSpace=wrap;html=1;" vertex="1" parent="1">
          <mxGeometry x="700" y="860" width="120" height="60" as="geometry" />
        </mxCell>
        <mxCell id="xnoSQF2YCeQExc6OMMjH-14" value="Manage Report&amp;nbsp;" style="rounded=0;whiteSpace=wrap;html=1;" vertex="1" parent="1">
          <mxGeometry x="700" y="930" width="120" height="60" as="geometry" />
        </mxCell>
        <mxCell id="xnoSQF2YCeQExc6OMMjH-15" value="Send Email to User" style="ellipse;whiteSpace=wrap;html=1;aspect=fixed;" vertex="1" parent="1">
          <mxGeometry x="80" y="780" width="80" height="80" as="geometry" />
        </mxCell>
        <mxCell id="xnoSQF2YCeQExc6OMMjH-16" value="Mange System Admins" style="rounded=0;whiteSpace=wrap;html=1;" vertex="1" parent="1">
          <mxGeometry x="40" y="920" width="120" height="60" as="geometry" />
        </mxCell>
        <mxCell id="xnoSQF2YCeQExc6OMMjH-17" value="Manage Roles of User" style="rounded=0;whiteSpace=wrap;html=1;" vertex="1" parent="1">
          <mxGeometry x="210" y="920" width="140" height="60" as="geometry" />
        </mxCell>
        <mxCell id="xnoSQF2YCeQExc6OMMjH-18" value="Mange User Permission" style="rounded=0;whiteSpace=wrap;html=1;" vertex="1" parent="1">
          <mxGeometry x="380" y="920" width="120" height="60" as="geometry" />
        </mxCell>
        <mxCell id="xnoSQF2YCeQExc6OMMjH-24" style="edgeStyle=orthogonalEdgeStyle;rounded=0;orthogonalLoop=1;jettySize=auto;html=1;exitX=1;exitY=0.5;exitDx=0;exitDy=0;" edge="1" parent="1" source="xnoSQF2YCeQExc6OMMjH-6">
          <mxGeometry relative="1" as="geometry">
            <mxPoint x="360" y="680" as="targetPoint" />
          </mxGeometry>
        </mxCell>
        <mxCell id="xnoSQF2YCeQExc6OMMjH-25" value="" style="endArrow=classic;html=1;rounded=0;entryX=-0.025;entryY=0.642;entryDx=0;entryDy=0;entryPerimeter=0;" edge="1" parent="1" target="xnoSQF2YCeQExc6OMMjH-4">
          <mxGeometry width="50" height="50" relative="1" as="geometry">
            <mxPoint x="360" y="650" as="sourcePoint" />
            <mxPoint x="410" y="600" as="targetPoint" />
          </mxGeometry>
        </mxCell>
        <mxCell id="xnoSQF2YCeQExc6OMMjH-30" value="" style="endArrow=classic;html=1;rounded=0;entryX=0;entryY=0.5;entryDx=0;entryDy=0;" edge="1" parent="1" target="xnoSQF2YCeQExc6OMMjH-8">
          <mxGeometry width="50" height="50" relative="1" as="geometry">
            <mxPoint x="570" y="640" as="sourcePoint" />
            <mxPoint x="620" y="590" as="targetPoint" />
          </mxGeometry>
        </mxCell>
        <mxCell id="xnoSQF2YCeQExc6OMMjH-31" value="" style="endArrow=classic;html=1;rounded=0;entryX=-0.028;entryY=0.4;entryDx=0;entryDy=0;entryPerimeter=0;" edge="1" parent="1" target="xnoSQF2YCeQExc6OMMjH-9">
          <mxGeometry width="50" height="50" relative="1" as="geometry">
            <mxPoint x="580" y="650" as="sourcePoint" />
            <mxPoint x="630" y="600" as="targetPoint" />
          </mxGeometry>
        </mxCell>
        <mxCell id="xnoSQF2YCeQExc6OMMjH-45" value="" style="endArrow=classic;html=1;rounded=0;entryX=0.844;entryY=-0.056;entryDx=0;entryDy=0;exitX=0;exitY=1;exitDx=0;exitDy=0;entryPerimeter=0;" edge="1" parent="1" source="xnoSQF2YCeQExc6OMMjH-7" target="xnoSQF2YCeQExc6OMMjH-16">
          <mxGeometry width="50" height="50" relative="1" as="geometry">
            <mxPoint x="430" y="750" as="sourcePoint" />
            <mxPoint x="380" y="800" as="targetPoint" />
          </mxGeometry>
        </mxCell>
        <mxCell id="xnoSQF2YCeQExc6OMMjH-46" value="" style="endArrow=classic;html=1;rounded=0;exitX=0.5;exitY=0;exitDx=0;exitDy=0;entryX=0.5;entryY=0;entryDx=0;entryDy=0;" edge="1" parent="1" target="xnoSQF2YCeQExc6OMMjH-17">
          <mxGeometry width="50" height="50" relative="1" as="geometry">
            <mxPoint x="540" y="720" as="sourcePoint" />
            <mxPoint x="490" y="770" as="targetPoint" />
          </mxGeometry>
        </mxCell>
        <mxCell id="xnoSQF2YCeQExc6OMMjH-47" value="" style="endArrow=classic;html=1;rounded=0;exitX=0.5;exitY=0;exitDx=0;exitDy=0;entryX=0.5;entryY=0;entryDx=0;entryDy=0;" edge="1" parent="1" target="xnoSQF2YCeQExc6OMMjH-18">
          <mxGeometry width="50" height="50" relative="1" as="geometry">
            <mxPoint x="560" y="720" as="sourcePoint" />
            <mxPoint x="440" y="910" as="targetPoint" />
          </mxGeometry>
        </mxCell>
        <mxCell id="xnoSQF2YCeQExc6OMMjH-50" value="" style="endArrow=classic;html=1;rounded=0;entryX=0;entryY=0.5;entryDx=0;entryDy=0;" edge="1" parent="1" source="xnoSQF2YCeQExc6OMMjH-7" target="xnoSQF2YCeQExc6OMMjH-11">
          <mxGeometry width="50" height="50" relative="1" as="geometry">
            <mxPoint x="590" y="750" as="sourcePoint" />
            <mxPoint x="540" y="800" as="targetPoint" />
          </mxGeometry>
        </mxCell>
        <mxCell id="xnoSQF2YCeQExc6OMMjH-51" value="" style="endArrow=classic;html=1;rounded=0;entryX=0;entryY=0.25;entryDx=0;entryDy=0;exitX=1;exitY=1;exitDx=0;exitDy=0;" edge="1" parent="1" source="xnoSQF2YCeQExc6OMMjH-7" target="xnoSQF2YCeQExc6OMMjH-12">
          <mxGeometry width="50" height="50" relative="1" as="geometry">
            <mxPoint x="630" y="760" as="sourcePoint" />
            <mxPoint x="580" y="810" as="targetPoint" />
          </mxGeometry>
        </mxCell>
        <mxCell id="xnoSQF2YCeQExc6OMMjH-52" value="" style="endArrow=classic;html=1;rounded=0;entryX=0;entryY=0.5;entryDx=0;entryDy=0;exitX=0.758;exitY=0.975;exitDx=0;exitDy=0;exitPerimeter=0;" edge="1" parent="1" source="xnoSQF2YCeQExc6OMMjH-7" target="xnoSQF2YCeQExc6OMMjH-13">
          <mxGeometry width="50" height="50" relative="1" as="geometry">
            <mxPoint x="590" y="790" as="sourcePoint" />
            <mxPoint x="540" y="840" as="targetPoint" />
          </mxGeometry>
        </mxCell>
      </root>
    </mxGraphModel>
  </diagram>
</mxfile>
